# xmcd
#
# Track frame offsets:
#	150
#	45908
#	69297
#	92533
#	161138
#	168995
#
# Disc length: 2475 seconds
#
# Revision: 1
# Processed by: cddbd v1.5.2PL0 Copyright (c) Steve Scherf et al.
# Submitted via: audiograbber 1.83.01
#
DISCID=3d09a906
DTITLE=Dragontears - Tambourine Freak Machine
DYEAR=2008
DGENRE=psychedelic rock
TTITLE0=The River
TTITLE1=Sunrise
TTITLE2=Masters Of War
TTITLE3=The Freedom Seed
TTITLE4=Rocco's Revenge
TTITLE5=Dreamweaver
EXTD=
EXTT0=
EXTT1=
EXTT2=
EXTT3=
EXTT4=
EXTT5=
PLAYORDER=
